<svg width="116" height="30" fill="none" xmlns="http://www.w3.org/2000/svg"><path fill-rule="evenodd" clip-rule="evenodd" d="M0 .8h7.5c3.4 0 6.3 1.9 6.3 5.3 0 2.7-1.9 4.5-4.2 5l4.3 8H9.1l-4-7.6h-.6V19H0V.8zM7.2 8c1.3 0 2-.8 2-1.9 0-1-.7-1.9-2-1.9H4.5V8h2.7z" fill="#081351"/><path fill-rule="evenodd" clip-rule="evenodd" d="M13.3 12.6c0-3.8 2.8-6.7 6.6-6.7 4 0 6.6 3.2 6.6 6.5v1h-9.3A2.8 2.8 0 0020 16c1 0 1.9-.3 2.3-1.2h4c-.7 2.7-3.2 4.5-6.2 4.5-4 0-6.8-3-6.8-6.7zm9.2-1.6c-.3-1.2-1.3-2-2.6-2-1.2 0-2.3.7-2.6 2h5.2zM27.2 12.6c0-3.8 2.8-6.7 6.6-6.7 4 0 6.6 3.2 6.6 6.5v1H31a2.8 2.8 0 002.8 2.6c1 0 1.9-.3 2.3-1.2h4c-.7 2.7-3.2 4.5-6.3 4.5-3.9 0-6.7-3-6.7-6.7zm9.2-1.6C36 9.8 35 9 33.8 9c-1.2 0-2.3.7-2.6 2h5.2zM51.5.4V7c-1-.7-2.3-1-3.6-1a6.7 6.7 0 103.6 12.4v.8h3.8V0l-3.8.4zm-3.6 15.2a3 3 0 01-3-3 3 3 0 013-3 3 3 0 013 3 3 3 0 01-3 3z" fill="#081351"/><mask id="a" maskUnits="userSpaceOnUse" x="49" y="23" width="7" height="7"><path fill-rule="evenodd" clip-rule="evenodd" d="M49.7 23.3h6.2v6.3h-6.2v-6.3z" fill="#fff"/></mask><g mask="url(#a)"><path fill-rule="evenodd" clip-rule="evenodd" d="M55.9 26.5c0 1.7-1.4 3.1-3.1 3.1a3.1 3.1 0 01-3.1-3.1c0-1.7 1.4-3.2 3-3.2 1.8 0 3.2 1.5 3.2 3.2z" fill="#081351"/></g><mask id="b" maskUnits="userSpaceOnUse" x="40" y="23" width="7" height="7"><path fill-rule="evenodd" clip-rule="evenodd" d="M40.1 23.3h6.2v6.3h-6.2v-6.3z" fill="#fff"/></mask><g mask="url(#b)"><path fill-rule="evenodd" clip-rule="evenodd" d="M46.3 26.5c0 1.7-1.4 3.1-3 3.1a3.1 3.1 0 01-3.2-3.1c0-1.7 1.4-3.2 3.1-3.2 1.7 0 3.1 1.5 3.1 3.2z" fill="#081351"/></g><mask id="c" maskUnits="userSpaceOnUse" x="30" y="23" width="7" height="7"><path fill-rule="evenodd" clip-rule="evenodd" d="M30.6 23.3h6.2v6.3h-6.2v-6.3z" fill="#fff"/></mask><g mask="url(#c)"><path fill-rule="evenodd" clip-rule="evenodd" d="M36.8 26.5c0 1.7-1.4 3.1-3.1 3.1a3.1 3.1 0 01-3.1-3.1c0-1.7 1.3-3.2 3-3.2 1.8 0 3.2 1.5 3.2 3.2z" fill="#081351"/></g><path fill-rule="evenodd" clip-rule="evenodd" d="M73.2 14.6c-.4 3-2.5 5-5.6 5-3.7 0-6.1-3-6.1-7.2s2.5-7 6.3-7c3 0 5 1.8 5.4 4.8H71c-.2-1.7-1.4-2.9-3.2-2.9-2.3 0-3.8 2-3.8 5.1 0 3.2 1.5 5.2 3.8 5.2 1.7 0 2.9-1.1 3.2-3h2.3zM86.7 12.4c0 4.3-2.6 7.1-6.5 7.1-3.8 0-6.3-2.8-6.3-7 0-4.3 2.5-7 6.4-7 3.8 0 6.4 2.8 6.4 7zm-10.4 0c0 3.2 1.5 5.2 3.9 5.2s4-2 4-5.1c0-3.2-1.6-5.2-4-5.2s-3.9 2-3.9 5zM100.5 17.5c-.7 1.2-2.2 2-4 2-1.8 0-3.3-.8-4-2-.6-1-.7-1.9-.7-4V5.7H94v8c0 2.5.9 3.7 2.8 3.7 1.3 0 2.4-.6 3-1.6.4-.6.5-1.4.5-3.7V5.8h2.3v13.3h-2.2v-1.6zM104.4.8h2.3v10.6l5.3-5.6h3.1l-6.2 6 6.5 7.3h-3l-5.7-6.9v7h-2.3V.7zM60.7 17.6c0 .9-.7 1.6-1.6 1.6-.9 0-1.6-.7-1.6-1.6 0-.9.7-1.6 1.6-1.6.9 0 1.6.7 1.6 1.6zM90.5 17.6c0 .9-.7 1.6-1.5 1.6-.9 0-1.6-.7-1.6-1.6 0-.9.7-1.6 1.6-1.6.8 0 1.5.7 1.5 1.6z" fill="#FF00CD"/></svg>